<?xml version="1.0" encoding="UTF-8"?>
<svg width="50px" height="50px" version="1.1" viewBox="0 0 700 410" xmlns="http://www.w3.org/2000/svg" xmlns:xlink="http://www.w3.org/1999/xlink">
 <g>
  <path d="m590.18 39.871c-25.703-25.703-59.863-39.871-96.152-39.871-36.344 0-70.504 14.168-96.207 39.871l-100.8 100.8c-25.703 25.703-39.816 59.863-39.816 96.152 0 36.344 14.168 70.504 39.816 96.207 14.055 14.055 30.52 24.586 49 31.359l1.0078-1.0078c10.695-10.695 16.633-24.977 16.633-40.152 0-9.4648-2.2969-18.535-6.6094-26.602-0.11328-0.054687-0.16797-0.11328-0.28125-0.16797-4.7031-2.8555-9.0703-6.2734-12.938-10.191-13.16-13.16-20.441-30.742-20.441-49.449 0-18.703 7.2812-36.23 20.441-49.391l100.8-100.8c13.16-13.16 30.742-20.441 49.449-20.441 18.703 0 36.23 7.2812 49.391 20.441 27.273 27.273 27.273 71.566 0 98.84l-94.188 94.082c7.9531 26.098 8.625 53.871 1.9609 80.246 14.055-6.6094 26.879-15.566 38.078-26.77l100.8-100.8c25.703-25.703 39.816-59.809 39.816-96.152 0-36.34-14.113-70.5-39.762-96.203z" fill="#292929"/>
  <path d="m353.98 195.66-1.0078 1.0078c-10.695 10.754-16.633 24.977-16.633 40.152 0 9.4648 2.2383 18.48 6.5508 26.602 4.8164 2.9102 9.2383 6.3828 13.273 10.414 13.16 13.16 20.441 30.742 20.441 49.391 0 18.703-7.2812 36.23-20.441 49.391l-100.8 100.8c-13.609 13.609-31.527 20.441-49.449 20.441s-35.785-6.7773-49.391-20.441c-13.16-13.16-20.441-30.742-20.441-49.449 0-18.703 7.2812-36.23 20.441-49.391l94.137-94.137c-7.9531-26.098-8.625-53.871-1.9609-80.246-14.113 6.6641-26.879 15.625-38.078 26.824l-100.8 100.8c-25.648 25.703-39.816 59.863-39.816 96.207s14.168 70.504 39.816 96.152c26.543 26.543 61.375 39.762 96.152 39.762 34.832 0 69.664-13.273 96.207-39.762l100.8-100.8c25.703-25.703 39.816-59.809 39.816-96.152s-14.168-70.504-39.816-96.152c-14.055-14.055-30.52-24.582-49-31.414z" fill="#292929"/>
 </g>
</svg>
