<?xml version="1.0" encoding="UTF-8"?>
<svg width="30px" height="30px" version="1.1" viewBox="80 50 550 450" xmlns="http://www.w3.org/2000/svg" xmlns:xlink="http://www.w3.org/1999/xlink">
 <g>
  <path d="m539.84 393.68c0 42-34.16 76.16-76.16 76.16h-227.36c-42 0-76.16-34.16-76.16-76.16v-227.36c0-42 34.16-76.16 76.16-76.16h66.078v-76.16h-66.078c-84 0-152.32 68.32-152.32 152.32v226.8c0 84 68.32 152.32 152.32 152.32h226.8c84 0 152.32-68.32 152.32-152.32v-65.52h-75.602z" fill="#7f7f7f"/>
  <path d="m577.92 14h-190.96v76.16h99.121l-210.56 210.56c-15.121 14.559-15.121 39.199 0 53.762 7.2812 7.2812 17.359 11.199 26.879 11.199 9.5195 0 19.602-3.9219 26.879-11.199l210.56-210.56v99.121h76.16l0.003906-190.96c0-21.277-16.801-38.078-38.078-38.078z" fill="#7f7f7f"/>
 </g>
</svg>
